<svg width="14" height="14" viewBox="0 0 14 14" fill="none" xmlns="http://www.w3.org/2000/svg">
<circle cx="7" cy="7" r="7" fill="#CF215B"/>
<path d="M6.98055 10.12C6.53388 10.12 6.13055 10.04 5.77055 9.88C5.41055 9.71333 5.12055 9.46667 4.90055 9.14C4.68721 8.81333 4.57388 8.40667 4.56055 7.92H5.41055C5.41721 8.32 5.55721 8.66667 5.83055 8.96C6.10388 9.24667 6.48721 9.39 6.98055 9.39C7.47388 9.39 7.84388 9.25333 8.09055 8.98C8.34388 8.70667 8.47055 8.37667 8.47055 7.99C8.47055 7.66333 8.39055 7.39667 8.23055 7.19C8.07721 6.98333 7.86721 6.83 7.60055 6.73C7.34055 6.63 7.05388 6.58 6.74055 6.58H6.22055V5.87H6.74055C7.19388 5.87 7.54721 5.76667 7.80055 5.56C8.06055 5.35333 8.19055 5.06333 8.19055 4.69C8.19055 4.37667 8.08721 4.12 7.88055 3.92C7.68055 3.71333 7.38055 3.61 6.98055 3.61C6.59388 3.61 6.28388 3.72667 6.05055 3.96C5.81721 4.18667 5.68721 4.47333 5.66055 4.82H4.81055C4.83055 4.44 4.93055 4.10333 5.11055 3.81C5.29721 3.51667 5.55055 3.29 5.87055 3.13C6.19055 2.96333 6.56055 2.88 6.98055 2.88C7.43388 2.88 7.81055 2.96 8.11055 3.12C8.41721 3.28 8.64721 3.49333 8.80055 3.76C8.96055 4.02667 9.04055 4.32 9.04055 4.64C9.04055 4.99333 8.94388 5.31667 8.75055 5.61C8.55721 5.89667 8.26721 6.09 7.88055 6.19C8.29388 6.27667 8.63721 6.47333 8.91055 6.78C9.18388 7.08667 9.32055 7.49 9.32055 7.99C9.32055 8.37667 9.23055 8.73333 9.05055 9.06C8.87721 9.38 8.61721 9.63667 8.27055 9.83C7.92388 10.0233 7.49388 10.12 6.98055 10.12Z" fill="white"/>
</svg>
